<?xml version="1.0" encoding="UTF-8" standalone="no"?>
<svg
   xmlns:dc="http://purl.org/dc/elements/1.1/"
   xmlns:cc="http://creativecommons.org/ns#"
   xmlns:rdf="http://www.w3.org/1999/02/22-rdf-syntax-ns#"
   xmlns:svg="http://www.w3.org/2000/svg"
   xmlns="http://www.w3.org/2000/svg"
   id="svg8"
   version="1.1"
   viewBox="0 0 140 140"
   height="140mm"
   width="140mm">
  <defs
     id="defs2" />
  <metadata
     id="metadata5">
    <rdf:RDF>
      <cc:Work
         rdf:about="">
        <dc:format>image/svg+xml</dc:format>
        <dc:type
           rdf:resource="http://purl.org/dc/dcmitype/StillImage" />
        <dc:title></dc:title>
      </cc:Work>
    </rdf:RDF>
  </metadata>
  <g
     transform="translate(-36.081517,27.883848)"
     id="layer1">
    <path
       id="path4517"
       d="m 90.589956,40.459762 c 0,0 -5.096132,0.250073 61.616674,0.06109 C 163.15181,42.01666 126.114,22.812309 126.114,22.812309 l 0.10023,6.497159 -35.718767,-0.472474 z"
       style="fill:#2c5aa0;fill-opacity:1;stroke:none;stroke-width:0.26458332px;stroke-linecap:butt;stroke-linejoin:miter;stroke-opacity:1" />
    <path
       id="path4507"
       d="m 126.05211,15.060703 v 50.39939 l 43.27873,-25.318531 z"
       style="fill:none;stroke:#000000;stroke-width:5.4829998;stroke-linecap:butt;stroke-linejoin:round;stroke-miterlimit:4;stroke-dasharray:none;stroke-opacity:1" />
    <path
       id="path4496"
       d="m 84.301821,12.132696 c -3.099588,1.237252 -7.702071,5.146148 -9.287288,8.819615 l -0.03979,11.197767 -20.146574,-0.0956 c -0.161647,-5.05687 0.06723,0.2676 -0.161231,-5.056539 -0.727978,-1.656135 -2.079075,-3.080374 -3.95428,-3.812685 l -6.116939,0.05581 c -1.738141,0.879406 -2.869565,1.892806 -3.591513,4.125847 L 40.87088,53.559628 c 0.854244,2.268435 1.771184,2.948168 3.540871,3.74137 h 6.816119 c 1.79151,-0.839235 2.966813,-2.078347 3.556889,-4.309295 l 0.117824,-4.10931 6.547919,-0.200504 c 0,0 1.566183,-0.607888 1.870689,-1.804024 l 0.06718,-9.339482 2.80603,0.06718 v 9.13846 c 1.564582,2.908133 3.710258,2.577647 5.545916,0.06666 l 0.06666,-9.205124 3.274219,-0.01551 c -0.06666,9.220626 0.0708,0 0.0041,9.220626 1.101804,2.300219 3.694403,2.486303 5.175911,-0.133326 l 0.255797,-24.916825 c 0.848635,-2.218344 3.309352,-4.552588 5.561419,-4.274159 l 0.09457,45.62767 c -4.785297,-0.544307 -5.54105,-2.910922 -6.013588,-7.082218 -1.464725,-2.257814 -3.708598,-1.244867 -4.794538,-0.141594 -0.216818,4.35128 0.07057,-0.02392 -0.146246,4.32736 1.091552,5.0485 5.545423,7.341368 8.883179,8.309012 l 7.549928,0.13332 V 54.561628 l 26.259392,-0.133842 c 2.94001,-2.934989 2.94001,-2.920106 0,-5.679242 l -26.392718,0.06667 0.06666,-16.904396 h 26.326058 c 2.99007,-2.821281 2.9619,-2.825811 -0.0667,-5.746419 L 91.585091,26.364898 91.518427,12.132693 Z M 46.416795,28.837103 h 2.83962 v 23.318989 h -2.83962 z m 8.351946,8.619112 h 3.040124 v 6.113838 h -3.040124 z"
       style="fill:#000000;fill-opacity:1;stroke:none;stroke-width:0.26458332px;stroke-linecap:butt;stroke-linejoin:miter;stroke-opacity:1" />
  </g>
</svg>
